<svg version="1" xmlns="http://www.w3.org/2000/svg" width="933.333" height="933.333" viewBox="0 0 700.000000 700.000000"><path d="M509.8 85.4c-.1.2-9.1.6-19.8 1-29.9.9-46.7 2.7-69 7.2-58.7 11.8-84.1 34.4-97.5 86.9l-3.3 13-1.5-5.5c-2.8-9.5-6.9-24.4-7.2-26-.2-.8-1.1-4.2-2-7.5-.9-3.3-1.8-6.7-2-7.5-.3-1.6-6.8-25.3-11.1-41-1.5-5.2-3-9.7-3.4-10-.6-.4-111.8-.5-116.7-.1-.6.1-1.4 1.6-1.8 3.3-.4 1.8-1.1 4.6-1.6 6.3-.9 2.9-22.7 84.5-23.4 87.5-.2.8-1.8 6.9-3.5 13.5-1.8 6.6-6.3 23.5-10 37.5-3.8 14-9.2 34.3-12 45-2.9 10.7-6.7 25.1-8.5 32-5.3 20-11.8 44.6-19 71.5-3.7 13.7-6.9 25.7-7.1 26.5-.2.8-2.6 9.8-5.3 20-6.5 24.6-9.4 35.5-12.6 47.5-1.5 5.5-4.9 18.3-7.7 28.5-2.7 10.2-5.1 19.3-5.3 20.3-.2 1-.7 2.7-1 3.7-.3 1-.7 2.7-.9 3.7-.2 1-1.5 5.8-2.9 10.8-1.4 4.9-3.9 14.2-5.5 20.5-1.7 6.3-4.6 17.5-6.6 24.9-2 7.4-3.5 13.9-3.3 14.4.2.8 57.2 1.3 79.9.8 2.2-.1 2.9-.7 3.4-2.8.4-1.6 3.6-13.8 7.1-27.3 3.5-13.5 6.6-25.6 6.9-27 .3-1.4 1.2-4.8 2-7.6s1.6-6 1.9-7c.8-3.9 6.3-25 6.9-26.4.5-1.3 11.1-1.5 87.9-1.3 47.9.1 88.2.2 89.3.2 2.1.1 2.6 1.2 4.9 11.1.2.8 3.7 14.1 7.9 29.5 4.1 15.4 8.8 33.4 10.6 40 4.2 16.3 5 18.5 6.3 18.6 6.3.4 160-.1 165.7-.5 4.1-.3 11.1-.8 15.5-1.1 4.4-.3 9.6-.8 11.5-1 1.9-.3 5.5-.7 8-1 38.8-4.8 67.9-17 81.3-34 6.2-7.9 14.7-26 16.2-34.6.3-1.7 1-3.9 1.4-4.8.5-.9 1.1-3.2 1.5-5.1.3-1.9.8-4.6 1.1-6 1.2-5.9 2.5-13.7 2.9-17 2.1-16.9 2.3-18.9 3.2-34.5 1.1-21.6 1.1-50.5 0-50.6-7.5-.3-76.9.1-77.3.5-.3.3-.6 9.7-.6 20.8.1 21.6-.6 29.3-3.7 42.6-3.3 13.7-9.2 23.8-16.9 28.6-3.8 2.3-13.2 6.3-16.6 7-1.1.3-5.1 1.1-9 2-11.3 2.4-21.6 3.1-45.5 3.1-35.8 0-52.1-2.5-68.5-10.5-14.6-7.2-18.8-12.9-22.8-31-3.3-14.8-5.2-32.9-7.2-70-1.3-23.6-2-110-1-134 .8-22.1 2.5-44.8 3.9-53 .2-1.4 1-5.9 1.6-10 1.4-8.9 4-17.8 7-24.4 6.3-13.3 26.1-21.3 60.5-24.4 16-1.4 56-.6 67.5 1.3 14.8 2.5 27 7.3 31.7 12.3 6.1 6.5 10.8 17.5 12.7 29.7.2 1.6.7 4.8 1.1 7 .6 4.2 1.4 22.1 1.5 34.2v7.2h39.4l39.5-.1-.4-17.6c-.4-17.8-1.2-34.7-2-41.2-.2-1.9-.7-6-1-9-.6-5-2.6-17.2-4-24.3-1.3-6.6-4.3-16.7-8-26.7-3.5-9.6-13.2-24.4-19.5-29.8-2.8-2.4-17.8-12.2-18.7-12.2-.5 0-2.9-.9-5.2-2.1-7.9-3.8-26.5-8.9-37.6-10.3-2.7-.4-6.3-.9-7.9-1.2-5.2-.9-11.8-1.4-27.1-2-8.2-.3-15.5-.7-16.2-.9-.6-.2-1.3-.2-1.5-.1zM247.6 215c4.7 17.6 9 33.7 11.8 44 .8 3 3.3 12.7 5.6 21.5 12.6 47.9 25.6 96.8 27 101.5.6 1.9 4.2 15.5 8 30.2 3.8 14.6 7.3 27.3 7.6 28.2.6 1.4-2.1 1.6-27.2 1.7-55.9.1-113.7-.1-114.1-.4-.2-.2 3.5-15 8.1-32.8 4.6-17.8 13.2-50.9 19.1-73.4 5.8-22.6 11.7-44.8 13-49.5 1.3-4.7 2.6-9.6 2.9-11 .3-1.4 4.6-18 9.6-37 4.9-19 10.2-39 11.6-44.5 1.4-5.5 3.3-12.5 4.1-15.5l1.6-5.5 3.3 12.5c1.9 6.9 5.5 20.4 8 30z"/></svg>