<?xml version="1.0" encoding="utf-8"?>
<!-- Generator: Adobe Illustrator 16.0.0, SVG Export Plug-In . SVG Version: 6.00 Build 0)  -->
<!DOCTYPE svg PUBLIC "-//W3C//DTD SVG 1.1//EN" "http://www.w3.org/Graphics/SVG/1.1/DTD/svg11.dtd">
<svg version="1.1" id="Layer_1" xmlns="http://www.w3.org/2000/svg" xmlns:xlink="http://www.w3.org/1999/xlink" x="0px" y="0px"
	 width="600px" height="600px" viewBox="0 0 600 600" enable-background="new 0 0 600 600" xml:space="preserve">
<path d="M500.15,363.299l0.521,19.861c0,29.521-4.994,48.624-14.979,57.304c-9.986,8.684-31.736,13.024-65.246,13.024
	c-41.33,0-65.77-7.815-73.322-23.442c-7.553-15.63-11.332-65.983-11.332-151.073c0-63.164,4.209-101.146,12.635-113.956
	c8.421-12.804,33.555-19.21,75.405-19.21c31.256,0,51.268,4.07,60.038,12.211c8.767,8.139,13.153,26.754,13.153,55.838v11.395
	h67.724l-0.262-10.092c0-56.434-8.511-94.146-25.526-113.143c-17.02-18.99-50.881-28.488-101.582-28.488
	c-69.636,0-115.388,11.559-137.268,34.676c-11.83,12.498-20.19,30.999-25.623,58.189l-0.168-0.655l-22.614-83.696H150.381
	L32.128,526.468h71.368l22.141-85.305h153.416l22.66,85.305c0,0,100.498,0.004,119.254,0.004c61.816,0,101.754-9.765,119.815-27.891
	c18.058-18.12,27.09-58.117,27.09-119.979v-15.303H500.15z M142.046,378.981l60.429-231.492l61.471,231.492H142.046z"/>
</svg>
